<?xml version="1.0" encoding="utf-8"?>
<!-- Generator: Adobe Illustrator 16.0.0, SVG Export Plug-In . SVG Version: 6.00 Build 0)  -->
<!DOCTYPE svg PUBLIC "-//W3C//DTD SVG 1.1//EN" "http://www.w3.org/Graphics/SVG/1.1/DTD/svg11.dtd">
<svg version="1.1" id="Layer_1" xmlns="http://www.w3.org/2000/svg" xmlns:xlink="http://www.w3.org/1999/xlink" x="0px" y="0px"
	 width="4902.512px" height="4283.363px" viewBox="48.744 44.319 4902.512 4283.363"
	 enable-background="new 48.744 44.319 4902.512 4283.363" xml:space="preserve">
<g>
	<path fill="#212121" d="M3685.825,1357.437c0,31.549-0.114,63.1,0.041,94.645c0.088,17.703,1.209,18.768,19.066,18.791
		c59.221,0.077,118.442,0.019,177.664,0.045c9.95,0.005,19.774,0.182,29.467,3.582c15.342,5.379,23.262,16.171,25.252,31.775
		c0.627,4.916,0.59,9.937,0.592,14.909c0.039,50.922,0.029,101.84,0.011,152.759c0,3.874,0.012,7.757-0.271,11.616
		c-1.398,19.126-12.316,32.114-31.055,35.772c-7.527,1.471-15.404,1.6-23.123,1.616c-56.453,0.124-112.906,0.063-169.359,0.074
		c-4.428,0-8.885-0.22-13.277,0.191c-10,0.94-13.854,4.653-14.84,14.352c-0.447,4.385-0.193,8.849-0.193,13.276
		c-0.01,57.56-0.979,115.144,0.408,172.671c0.674,27.791-19.447,49.379-48.215,48.866c-50.902-0.91-101.838-0.149-152.754-0.317
		c-32.895-0.108-49.082-16.099-49.221-48.955c-0.229-57.561-0.06-115.123-0.066-172.684c0-4.427,0.193-8.875-0.141-13.28
		c-0.805-10.636-3.402-13.141-14.416-14.01c-3.854-0.305-7.744-0.113-11.619-0.113c-53.688-0.003-107.375-0.002-161.059,0
		c-3.322,0-6.642,0.013-9.968-0.002c-39.561-0.193-53.948-14.59-53.993-54.186c-0.052-47.047-0.017-94.091-0.013-141.138
		c0-3.872-0.112-7.757,0.132-11.616c1.741-28.033,17.192-43.816,45.278-44.924c19.896-0.781,39.843-0.241,59.771-0.248
		c42.061-0.017,84.125,0.033,126.188-0.021c19.25-0.026,19.785-0.469,19.813-19.317c0.08-59.772,0.039-119.549,0.006-179.322
		c-0.004-7.763,0.303-15.384,2.439-22.993c5.082-18.095,14.973-27.348,33.393-29.724c6.01-0.775,12.145-0.775,18.227-0.783
		c47.041-0.059,94.086-0.036,141.134-0.023c4.426,0.001,8.862-0.066,13.278,0.168c26.029,1.39,40.793,15.978,41.234,42.245
		c0.543,32.093,0.131,64.2,0.131,96.301C3685.784,1357.437,3685.807,1357.437,3685.825,1357.437z"/>
	<path fill="#212121" d="M1435.791,1481.08c106.787,0,213.576-0.002,320.363,0.001c4.426,0,8.86-0.144,13.279,0.064
		c24.855,1.17,41.444,17.393,42.08,42.074c0.541,21.011,0.148,42.047,0.154,63.073c0.012,32.646-0.833,65.316,0.244,97.929
		c1.111,33.659-19.428,48.797-47.316,48.865c-5.532,0.014-11.063,0.183-16.595,0.185c-210.257,0.01-420.516,0.013-630.772-0.023
		c-7.183,0-14.42,0.03-21.541-0.784c-21.71-2.481-36.905-17.962-37.099-39.729c-0.496-56.433-0.559-112.875,0.03-169.308
		c0.281-26.94,17.948-42.287,46.845-42.312C1215.574,1481.023,1325.682,1481.08,1435.791,1481.08z"/>
	<path fill="#212121" d="M48.806,3582.086c0-97.972,0-195.944,0-293.918c0-4.427-0.176-8.865,0.064-13.281
		c0.614-11.337,1.471-12.459,12.535-12.705c14.938-0.338,29.893-0.346,44.833-0.078c12.953,0.232,13.771,1.061,13.838,14.678
		c0.171,35.428,0.062,70.854,0.083,106.279c0.002,4.427,0.11,8.852,0.199,13.28c0.112,5.436,2.987,8.015,8.348,8.03
		c3.32,0.014,6.64,0.108,9.961,0.11c58.674,0.007,117.345,0.007,176.018-0.002c3.322,0,6.641-0.103,9.962-0.146
		c5.502-0.063,7.962-3.115,8.104-8.346c0.117-4.425,0.186-8.853,0.188-13.279c0.019-34.872-0.073-69.744,0.056-104.617
		c0.055-15.468,0.497-15.791,15.812-15.917c14.391-0.122,28.788,0.169,43.17-0.166c8.294-0.19,12.47,3.021,12.271,11.54
		c-0.116,4.977,0.165,9.961,0.165,14.941c0.011,196.498-0.018,392.998,0.043,589.493c0.008,27.713-0.716,24.257-24.45,24.415
		c-11.62,0.077-23.248-0.177-34.867,0.029c-8.111,0.143-12.66-2.823-12.2-11.585c0.233-4.417,0.003-8.854,0.003-13.283
		c-0.001-124.542-0.001-249.082-0.001-373.626c0-3.874,0.039-7.747-0.012-11.623c-0.207-16.354-0.215-16.596-16.839-16.628
		c-59.78-0.107-119.561-0.107-179.34,0c-16.313,0.029-16.531,0.271-16.542,16.869c-0.07,128.968-0.047,257.935-0.063,386.907
		c-0.003,22.924-0.021,22.931-22.295,22.951c-10.518,0.011-21.033,0.025-31.549-0.024c-16.883-0.084-17.199-0.416-17.449-18.078
		c-0.08-5.534-0.044-11.069-0.044-16.604C48.804,3772.496,48.806,3677.295,48.806,3582.086z"/>
	<path fill="#212121" d="M2643.24,3829.909c52.023,0,104.048-0.004,156.072,0.007c4.426,0.002,8.853,0.112,13.274,0.192
		c4.769,0.079,7.287,2.945,7.341,7.277c0.213,18.812,0.2,37.622,0.09,56.435c-0.033,5.221-3.035,8.118-8.34,8.284
		c-4.98,0.152-9.961,0.253-14.938,0.257c-78.59,0.014-157.176,0.008-235.766,0.011c-2.771,0-5.535-0.028-8.303,0.012
		c-16.386,0.245-16.582,0.248-16.644,16.894c-0.131,34.865-0.106,69.733-0.006,104.603c0.057,18.45,0.192,18.545,18.342,18.562
		c81.91,0.075,163.822,0.09,245.729,0.131c20.181,0.01,20.207,0.012,20.209,19.889c0.013,80.802,0.004,161.603,0.004,242.408
		c0,3.317,0.123,6.646-0.057,9.961c-0.602,11.271-1.483,12.383-12.531,12.684c-11.61,0.32-23.241,0.086-34.864,0.086
		c-95.744,0-191.492,0.01-287.238-0.006c-20.318-0.002-20.342-0.041-20.403-19.814c-0.037-12.729-0.19-25.463,0.07-38.182
		c0.268-13.016,1.08-13.625,14.538-14.021c3.318-0.099,6.64-0.02,9.962-0.02c78.59,0,157.178,0.003,235.768-0.004
		c4.431,0,8.861-0.184,13.281-0.037c6.9,0.229,10.185-2.813,10.06-9.859c-0.146-8.299,0.141-16.601,0.135-24.903
		c-0.01-29.33-0.004-58.663-0.121-87.994c-0.07-17.702-0.166-17.793-18.906-17.806c-79.694-0.041-159.389,0.008-239.087-0.033
		c-28.316-0.014-25.654,2.151-25.679-26.185c-0.07-78.034-0.026-156.071-0.026-234.106c0-3.321-0.069-6.644,0.024-9.963
		c0.403-14.447,0.458-14.688,15.294-14.713C2534.766,3829.854,2589.004,3829.912,2643.24,3829.909z"/>
	<path fill="#212121" d="M2393.103,4080.141c0,74.158,0,148.32,0,222.48c0,2.768,0.037,5.537-0.022,8.301
		c-0.343,16.244-0.528,16.625-17.022,16.635c-106.813,0.069-213.629,0.069-320.442,0.008c-16.906-0.01-17.387-0.504-17.392-18.084
		c-0.051-153.855-0.03-307.713-0.015-461.569c0-3.318,0.04-6.646,0.34-9.945c0.479-5.195,3.443-7.938,8.715-7.953
		c17.71-0.051,35.42-0.101,53.128-0.074c5.272,0.013,8.276,2.854,8.548,8.079c0.318,6.075,0.391,12.17,0.393,18.255
		c0.021,126.185,0.008,252.365,0.027,378.55c0.004,20.672,0.061,20.715,20.906,20.728c57.559,0.021,115.115,0.008,172.674-0.006
		c3.873,0,7.746-0.08,11.615-0.215c5.395-0.193,7.963-3.107,7.98-8.447c0.014-4.982,0.121-9.959,0.123-14.943
		c0.027-127.289,0.049-254.58,0.076-381.869c0.002-20,0.018-20.059,19.692-20.188c12.728-0.084,25.466-0.25,38.184,0.12
		c11.104,0.32,11.841,1.315,12.414,12.715c0.221,4.417,0.077,8.854,0.077,13.279
		C2393.103,3930.713,2393.103,4005.423,2393.103,4080.141z"/>
	<path fill="#212121" d="M1790.557,3759.476c-53.7-0.005-107.396,0.047-161.095-0.03c-17.277-0.026-17.421-0.177-17.427-17.685
		c-0.047-106.293-0.025-212.586-0.017-318.873c0-3.322,0.088-6.639,0.163-9.961c0.119-5.359,2.834-8.182,8.232-8.198
		c17.713-0.047,35.429-0.013,53.141-0.104c6.13-0.029,9.25,3.002,9.525,8.952c0.229,4.972,0.239,9.961,0.242,14.94
		c0.015,76.947-0.201,153.899,0.115,230.847c0.137,33.542-2.253,28.384,28.116,28.888c9.961,0.165,19.936,0.258,29.891-0.068
		c12.095-0.4,13.027-1.164,13.15-13.705c0.276-28.23,0.113-56.467,0.135-84.697c0.007-11.073,0.196-22.146-0.005-33.213
		c-0.126-6.885,2.738-10.307,9.734-10.282c16.606,0.057,33.215,0.111,49.82-0.034c7.689-0.066,10.85,3.366,10.744,11.064
		c-0.244,17.708-0.044,35.43-0.031,53.142c0.019,21.587-0.154,43.185,0.115,64.77c0.139,11.161,1.493,12.638,12.377,12.909
		c15.489,0.388,31-0.115,46.496,0.146c8.464,0.14,12.202-3.443,11.822-11.898c-0.25-5.519,0.128-11.067,0.13-16.603
		c0.021-76.949,0.022-153.899,0.033-230.848c0-3.875-0.125-7.759,0.082-11.623c0.618-11.668,1.126-12.438,12.374-12.652
		c15.497-0.29,31.004-0.267,46.501-0.021c11.75,0.189,12.307,0.902,12.938,11.99c0.219,3.864,0.1,7.747,0.1,11.623
		c0.004,102.969,0.006,205.937,0.006,308.906c0,3.319,0.124,6.65-0.068,9.963c-0.631,10.934-1.48,12.114-12.925,12.246
		c-24.91,0.285-49.823,0.104-74.735,0.109C1850.346,3759.478,1820.451,3759.478,1790.557,3759.476z"/>
	<path fill="#212121" d="M3316.895,3580.487c0-97.952,0-195.907,0-293.86c0-3.873-0.135-7.754,0.051-11.619
		c0.541-11.275,1.463-12.55,12.428-12.804c15.486-0.36,30.988-0.349,46.479-0.057c10.617,0.198,11.955,1.771,12.465,12.853
		c0.328,7.182,0.222,14.388,0.222,21.578c0.014,170.452,0.014,340.9,0.006,511.354c-0.002,24.563-0.492,21.849,21.215,21.854
		c80.244,0.035,160.488,0.012,240.73,0.02c4.426,0.003,8.852,0.113,13.278,0.134c5.406,0.021,8.32,2.835,8.363,8.106
		c0.146,18.261,0.152,36.521,0.111,54.778c-0.011,5.916-2.9,9.31-9.097,9.376c-3.873,0.038-7.746,0.172-11.616,0.172
		c-104.597,0.016-209.191,0.016-313.787,0.013c-3.318,0-6.639-0.134-9.957-0.095c-7.695,0.086-11-3.901-10.844-11.342
		c0.088-4.428-0.048-8.853-0.048-13.283C3316.895,3778.606,3316.895,3679.549,3316.895,3580.487z"/>
	<path fill="#212121" d="M4098.477,3512.23c-0.008,29.329-0.305,58.667,0.145,87.993c0.172,11.231-2.842,20.055-11.047,28.141
		c-40.207,39.627-80.084,79.584-119.828,119.67c-7.102,7.158-14.817,10.968-24.944,10.759c-14.938-0.313-29.892-0.277-44.824,0
		c-9.496,0.176-16.854-3.261-23.549-10.002c-40.554-40.843-81.273-81.526-122.129-122.064c-6.767-6.714-9.757-14.194-9.732-23.658
		c0.17-60.878,0.013-121.759,0.136-182.637c0.034-15.749,0.508-16.066,15.604-16.257c13.832-0.171,27.674-0.202,41.508,0.021
		c14.285,0.237,14.531,0.402,14.56,15.4c0.104,47.594,0.594,95.199-0.326,142.781c-0.35,18.117,5.439,31.684,18.479,43.975
		c22.945,21.629,44.854,44.355,67.226,66.598c3.531,3.51,6.93,7.221,10.836,10.266c7.908,6.162,12.658,5.986,20.744-0.416
		c3.024-2.396,5.705-5.236,8.448-7.969c25.095-24.995,49.966-50.22,75.361-74.902c8.574-8.334,12.299-17.43,12.178-29.409
		c-0.477-46.485-0.256-92.979-0.291-139.468c-0.002-4.432-0.092-8.86,0.068-13.282c0.451-12.896,0.67-13.335,13.037-13.559
		c14.941-0.269,29.894-0.263,44.828,0.033c12.385,0.246,13.193,0.899,13.359,13.353c0.328,24.346,0.135,48.7,0.155,73.05
		C4098.481,3497.84,4098.477,3505.033,4098.477,3512.23z"/>
	<path fill="#212121" d="M4169.713,3582.219c0-52.017-0.008-104.031,0.006-156.046c0-4.427,0.067-8.854,0.211-13.271
		c0.174-5.275,2.797-8.175,8.256-8.2c3.873-0.014,7.748-0.127,11.619-0.127c105.688-0.007,211.375-0.007,317.069-0.007
		c2.765,0,5.535,0.12,8.295-0.01c6.801-0.322,10.358,2.584,10.328,9.652c-0.08,17.155-0.121,34.307,0.008,51.461
		c0.056,7.232-3.953,9.707-10.396,9.802c-4.977,0.07-9.957,0.152-14.938,0.152c-77.469,0.011-154.938,0.006-232.404,0.011
		c-4.428,0-8.865-0.149-13.278,0.095c-11.285,0.628-12.437,1.493-12.783,12.532c-0.399,12.712-0.135,25.447-0.14,38.177
		c-0.004,69.725-0.004,139.441-0.008,209.161c-0.002,4.429-0.164,8.856-0.098,13.282c0.115,7.779-3.865,10.713-11.363,10.621
		c-16.041-0.208-32.098,0.208-48.135-0.145c-11.252-0.25-12.08-1.068-12.158-12.801c-0.223-34.855-0.09-69.722-0.094-104.58
		C4169.705,3622.056,4169.713,3602.136,4169.713,3582.219z"/>
	<path fill="#212121" d="M901.266,3582.174c-0.002-52-0.007-103.997,0.006-155.994c0.001-4.423,0.071-8.85,0.229-13.27
		c0.188-5.254,2.814-8.182,8.256-8.233c3.315-0.035,6.635-0.106,9.955-0.108c106.207-0.004,212.418,0,318.627,0
		c2.766,0,5.537,0.135,8.296,0c6.853-0.332,10.344,2.725,10.328,9.709c-0.044,17.146-0.074,34.295-0.005,51.444
		c0.027,7.181-3.939,9.647-10.482,9.636c-6.636-0.006-13.273,0.264-19.912,0.264c-75.783,0.021-151.567,0.012-227.352,0.021
		c-4.979,0-9.959,0.154-14.937,0.075c-7.591-0.113-11.221,3.395-10.754,11.1c0.202,3.307,0.062,6.635,0.06,9.957
		c-0.063,81.316-0.133,162.632-0.203,243.946c-0.004,3.318,0.089,6.644-0.107,9.947c-0.302,5.072-2.766,8.506-8.163,8.543
		c-18.249,0.137-36.501,0.14-54.751,0.07c-6.13-0.023-8.905-3.499-8.905-9.499c0.002-4.977-0.174-9.953-0.174-14.932
		C901.26,3683.959,901.266,3633.063,901.266,3582.174z"/>
	<path fill="#212121" d="M2465.207,3581.35c0-52.017-0.006-104.029,0.015-156.044c0-4.418,0.08-8.85,0.3-13.264
		c0.227-4.543,2.688-7.109,7.296-7.271c4.423-0.154,8.851-0.193,13.274-0.195c104.58-0.008,209.161-0.016,313.739,0
		c20.418,0.002,20.438,0.047,20.472,21.279c0.02,12.729-0.162,25.454-0.007,38.18c0.095,7.476-2.868,11.476-10.729,11.211
		c-4.42-0.147-8.851,0.05-13.275,0.056c-79.125,0.112-158.248,0.221-237.371,0.331c-0.555,0.005-1.108,0-1.664,0.005
		c-21.227,0.079-21.264,0.079-21.268,20.722c-0.012,79.128,0.053,158.253-0.029,237.38c-0.027,27.791,2.908,25.664-26.043,25.733
		c-10.512,0.022-21.032,0.22-31.537-0.08c-11.928-0.338-12.768-1.279-13.107-13.707c-0.243-8.846-0.063-17.707-0.063-26.559
		C2465.207,3673.2,2465.207,3627.272,2465.207,3581.35z"/>
	<path fill="#212121" d="M3672.404,3582.196c-0.004,51.47,0.002,102.938-0.008,154.406c-0.002,4.426-0.07,8.854-0.168,13.279
		c-0.129,5.985-3.168,9.337-9.205,9.366c-17.705,0.091-35.41,0.076-53.117,0.029c-5.334-0.017-8.11-2.854-8.254-8.199
		c-0.086-3.318-0.182-6.637-0.182-9.955c-0.014-105.705-0.01-211.407-0.008-317.11c0-2.213-0.07-4.433,0.049-6.639
		c0.598-11.408,1.312-12.477,12.414-12.695c16.045-0.313,32.103,0.044,48.146-0.104c6.955-0.063,10.207,3.112,10.213,9.938
		c0.006,4.428,0.112,8.854,0.112,13.283C3672.404,3479.261,3672.404,3530.73,3672.404,3582.196z"/>
	<path fill="#212121" d="M4931.705,1553.479c-6.086-8.627-13.146-16.402-20.656-23.785c-21.311-20.952-42.793-41.733-63.926-62.86
		c-163.258-163.186-326.455-326.428-489.66-489.666c-100.191-100.21-200.271-200.533-300.687-300.516
		c-9.941-9.898-14.841-19.89-11.388-33.941c7.427-30.267,10.185-61.084,9.535-82.653c-0.19-88.765-15.541-164.54-50.717-235.862
		c-29.804-60.433-71.806-111.328-121.938-155.899c-39.586-35.192-83.131-64.33-131.686-85.549
		c-67.017-29.29-137.049-41.258-210.267-37.87c-41.754,1.936-82.834,7.219-122.756,18.617
		c-139.301,39.77-243.582,124.367-309.412,252.984c-70.318,137.374-72.899,279.576-17.693,422.716
		c38.826,100.679,108.646,176.097,198.517,233.873c80.311,51.63,168.254,77.324,263.834,76.459
		c42.799-0.385,84.949-6.218,126.41-16.456c12.795-3.16,22.801-0.372,32.045,7.895c3.715,3.316,7.162,6.932,10.676,10.463
		c90.594,91.02,181.043,182.186,271.815,273.027c68.074,68.125,136.6,135.8,204.828,203.771c7.043,7.013,14.295,14.075,19.979,22.15
		c20.533,29.155,23.61,59.982,7.229,92.28c-5.347,10.537-12.731,19.309-21.008,27.585
		c-189.092,189.061-378.119,378.184-567.229,567.223c-7.423,7.42-15.199,14.597-23.451,21.063
		c-28.438,22.28-64.041,23.328-94.281,3.374c-13.047-8.604-23.891-19.668-34.842-30.637
		c-251.533-251.954-502.984-503.99-754.633-755.832C2355.51,1100.307,1980.538,725.32,1605.622,350.278
		c-35.22-35.231-70.494-70.413-105.696-105.662c-19.24-19.267-41.686-30.971-69.631-29.236
		c-24.52,1.519-43.844,13.499-60.824,30.485c-399.997,400.167-800.053,800.279-1200.096,1200.4
		c-29.358,29.364-58.975,58.475-87.983,88.18c-22.793,23.336-36.182,50.348-27.757,84.109c4.989,20.003,17.238,35.83,31.442,49.985
		c194.491,193.779,387.585,388.956,582.854,581.964c91.739,90.676,182.358,182.483,273.87,273.397
		c11.496,11.425,15.218,23.505,12.074,38.879c-14.559,71.188-11.15,141.86,5.873,212.248
		c24.287,100.406,75.188,184.987,151.874,253.718c77.091,69.088,167.318,110.104,270.137,124.268
		c65.781,9.059,130.587,4.578,194.089-12.701c108.574-29.545,198.001-89.178,267.313-178.08
		c45.933-58.912,77.02-124.934,92.465-198.212c10.582-50.194,12.668-100.782,9.358-151.878
		c-3.95-60.979-19.005-118.885-45.354-173.906c-36.653-76.534-91.343-138.101-158.81-188.537
		c-101.532-75.904-215.465-107.358-341.793-93.684c-26.458,2.864-52.572,7.344-78.591,12.629
		c-14.344,2.913-26.132-1.347-36.095-11.689c-3.839-3.982-7.81-7.847-11.714-11.768c-89.832-90.206-179.563-180.507-269.523-270.58
		c-52.021-52.084-104.474-103.736-156.596-155.725c-19.59-19.539-39.185-39.102-58.063-59.318
		c-22.083-23.648-33.397-50.859-22.721-83.525c5.978-18.288,17.652-32.933,31.129-46.406
		c173.026-172.973,345.956-346.04,518.978-519.015c21.132-21.124,41.991-42.591,64.176-62.565
		c26.812-24.146,57.915-28.815,90.949-13.996c14.802,6.64,26.015,18.602,37.35,30.005
		c138.556,139.372,278.418,277.438,416.295,417.489c69.898,71.003,140.778,141.046,211.225,211.512
		c449.694,449.807,899.389,899.611,1349.121,1349.383c9.383,9.379,18.202,19.398,28.946,27.328
		c21.836,16.105,45.798,20.752,72.242,14.139c20.312-5.082,35.287-18.08,49.394-32.197c29.729-29.753,58.739-60.225,88.522-89.921
		c326.51-325.591,651.114-653.091,978.762-977.552c47.596-47.132,94.922-94.532,142.086-142.101
		c27.27-27.504,55.776-53.829,81.385-82.959C4953.063,1628.718,4955.084,1586.629,4931.705,1553.479z M3706.965,742.362
		c-49.037,39.32-106.582,55.771-169.162,51.396c-58.193-4.069-109.197-26.329-152.191-66.202
		c-16.293-15.11-30.533-31.958-42.938-50.378c-3.728-5.332-5.99-11.486-9.535-16.922c-17.465-33.372-27.367-68.958-28.535-106.503
		c-1.207-38.679,6.072-76.078,23.109-111.03c38.844-79.688,101.977-128.992,189.428-142.937
		c76.873-12.258,146.004,8.744,204.41,60.961c42.178,37.713,69.521,84.53,78.664,140.662
		C3816.23,599.697,3784.18,680.452,3706.965,742.362z M1194.978,2653.478c-2.112-121.814,97.903-247.357,248.896-247.852
		c146.908-0.481,250.872,118.039,250.283,251.463c-0.574,130.588-105.442,248.47-250.509,248.229
		C1297.498,2905.075,1191.435,2781.074,1194.978,2653.478z"/>
	<path fill="#212121" d="M3333.137,660.255c5.6,4.277,8.918,9.838,9.535,16.922C3337.455,672.684,3333.85,667.286,3333.137,660.255z
		"/>
	<path fill="#212121" d="M3246.711,3702.283c-0.199-13.214-0.627-13.48-14.406-13.951c-4.424-0.146-8.857-0.045-13.283-0.045
		c-77.482-0.006-154.961,0-232.443,0c-3.875,0-7.756-0.184-11.618,0c-8.154,0.381-12.345-2.853-12.195-11.541
		c0.271-16.047,0.162-32.097,0.088-48.147c-0.035-7.457,3.125-11.396,10.938-11.087c4.42,0.177,8.854-0.02,13.282-0.02
		c78.586-0.004,157.175-0.004,235.765-0.017c4.979,0,9.957-0.108,14.938-0.164c6.207-0.067,8.922-3.42,8.9-9.399
		c-0.011-3.322,0.092-6.646,0.092-9.963c0.008-58.111,0.008-116.222-0.014-174.332c0-3.871-0.062-7.75-0.261-11.615
		c-0.233-4.575-2.78-7.053-7.344-7.229c-4.424-0.167-8.853-0.197-13.277-0.197c-52.024-0.013-104.047-0.009-156.067-0.009
		c-47.597,0-95.193,0-142.789,0c-7.746,0-15.496-0.17-23.242,0.048c-12.191,0.336-12.607,0.871-13.043,13.563
		c-0.074,2.209-0.004,4.427-0.006,6.64c-0.041,105.153-0.082,210.305-0.123,315.454c0,2.218-0.08,4.438,0.063,6.64
		c0.695,10.938,1.668,11.937,12.863,12.5c4.416,0.224,8.852,0.064,13.279,0.064c94.082,0,188.17,0,282.256,0.007
		c11.065,0,22.139,0.273,33.203,0.009c13.596-0.325,14.211-0.914,14.434-14.039
		C3246.941,3731.066,3246.928,3716.67,3246.711,3702.283z M2962.852,3491.313c0.25-15.021,0.654-15.399,16.328-15.594
		c14.379-0.181,28.768-0.05,43.149-0.05c43.148,0,86.298,0,129.443,0.002c3.873,0.004,7.748,0.158,11.617,0.063
		c7.446-0.176,11.205,3.005,11.116,10.823c-0.168,15.48,0.332,30.975-0.067,46.451c-0.316,12.135-1.183,12.944-13.726,13.039
		c-30.975,0.239-61.957,0.082-92.938,0.082c0,0.008,0,0.016,0,0.022c-29.316,0-58.637,0.098-87.955-0.036
		c-16.535-0.079-16.781-0.39-16.988-16.637C2962.672,3516.759,2962.641,3504.032,2962.852,3491.313z"/>
	<path fill="#212121" d="M4951.252,3699.447c0.139-7.753-3.183-11.188-10.752-11.068c-4.424,0.07-8.853-0.093-13.275-0.093
		c-78.559,0-157.123,0.011-235.682,0.013c-4.429,0-8.857-0.183-13.277-0.041c-7.545,0.248-11.123-2.986-10.975-10.812
		c0.25-12.719-0.006-25.448,0.02-38.174c0.049-21.664,0.074-21.703,22.08-21.707c80.775-0.024,161.549,0.017,242.32-0.039
		c19.387-0.013,19.469-0.132,19.479-18.841c0.041-58.092,0.041-116.183,0-174.272c-0.013-19.774-0.084-19.832-20.354-19.837
		c-105.117-0.02-210.233-0.009-315.352-0.009c-2.768,0-5.547,0.206-8.295-0.021c-7.887-0.657-11.131,3.285-11.084,10.743
		c0.014,3.319-0.074,6.637-0.074,9.956c-0.006,104.565-0.006,209.127,0,313.688c0,3.32,0.115,6.644,0.074,9.957
		c-0.086,7.798,4.01,10.896,11.461,10.57c3.867-0.169,7.746,0.014,11.619,0.014c51.449,0.002,102.902,0,154.354,0
		c52.004,0.002,104.008,0.002,156.015,0c3.875,0,7.746-0.093,11.617-0.033c6.944,0.097,9.99-3.438,9.974-10.204
		C4951.098,3732.638,4950.951,3716.041,4951.252,3699.447z M4667.446,3488.237c0.272-11.245,1.037-11.712,12.539-12.583
		c1.651-0.128,3.313-0.16,4.972-0.158c59.651,0.055,119.313,0.045,178.967,0.234c15.817,0.051,16.442,0.954,16.498,17.201
		c0.047,12.703,0.135,25.41-0.021,38.113c-0.16,13.8-1.09,14.925-15.313,15.026c-30.383,0.216-60.765,0.067-91.146,0.073
		c-29.83,0.01-59.655,0.104-89.485-0.029c-16.578-0.076-16.929-0.484-17.088-16.449
		C4667.231,3515.855,4667.115,3502.041,4667.446,3488.237z"/>
	<path fill="#212121" d="M830.69,3424.483c-0.006-19.849-0.098-19.902-20.405-19.907c-104.629-0.017-209.258-0.009-313.889-0.009
		c-2.215,0-4.432-0.058-6.642,0.022c-12.735,0.455-13.292,0.764-13.672,13.062c-0.354,11.616-0.174,23.245-0.158,34.875
		c0.03,22.986,0.051,23.075,22.417,23.084c72.521,0.044,145.042,0.015,217.563,0.021c10.517,0,21.033,0.184,31.546,0.016
		c7.917-0.125,12.534,2.311,12.309,11.381c-0.398,16.039-0.234,32.102-0.074,48.146c0.077,7.7-3.481,11.141-11.04,10.959
		c-4.426-0.109-8.856,0.049-13.287,0.049c-78.608,0.002-157.219,0-235.831,0.012c-4.979,0.004-9.965,0.041-14.938,0.271
		c-5.105,0.238-8.276,2.68-8.355,8.173c-0.056,3.875-0.185,7.751-0.188,11.625c-0.051,58.126-0.086,116.253-0.122,174.382
		c0,2.213,0.148,4.434,0.037,6.641c-0.417,8.118,2.786,12.642,11.516,12.175c3.862-0.205,7.748,0.018,11.624,0.018
		c51.482,0.002,102.966,0,154.451,0c51.483,0,102.967,0.002,154.453-0.005c4.428,0,8.857-0.033,13.283-0.117
		c6.091-0.118,9.016-3.479,9.27-9.359c0.142-3.317,0.146-6.644,0.146-9.961C830.711,3634.849,830.725,3529.666,830.69,3424.483z
		 M759.653,3672.569c-0.168,14.938-0.682,15.437-16.274,15.673c-11.614,0.175-23.232,0.051-34.85,0.051
		c-48.128-0.002-96.256,0.063-144.384-0.047c-17.51-0.041-17.613-0.254-17.8-17.625c-0.14-12.72-0.205-25.451,0.063-38.17
		c0.295-13.85,1.202-14.793,15.534-14.875c30.423-0.173,60.85-0.057,91.275-0.059c30.426-0.004,60.854-0.122,91.277,0.052
		c14.07,0.077,14.968,1.104,15.15,15.17C759.816,3646.018,759.802,3659.295,759.653,3672.569z"/>
	<path fill="#212121" d="M2393.099,3738.362c0.001-104.061,0.004-208.122-0.01-312.184c-0.002-4.423-0.082-8.854-0.311-13.27
		c-0.271-5.255-3.08-8.085-8.438-8.171c-4.426-0.068-8.854-0.163-13.279-0.165c-51.477-0.011-102.953-0.007-154.429-0.007
		c-53.14,0-106.275-0.021-159.414,0.009c-18.985,0.015-18.995,0.071-19.04,19.608c-0.018,8.305-0.069,16.608,0.025,24.912
		c0.313,27.087-3.883,26.543,27.351,26.539c76.386-0.012,152.77-0.005,229.153-0.005c3.875,0,7.752-0.061,11.625,0.022
		c15.627,0.344,16.026,0.633,16.301,15.68c0.201,11.065,0.107,22.141,0.054,33.211c-0.106,21.584-0.134,21.625-22.008,21.633
		c-81.367,0.02-162.732-0.029-244.099,0.045c-17.754,0.012-18.383,0.52-18.412,17.107c-0.103,60.334-0.004,120.667,0.021,181.001
		c0.001,1.661,0.074,3.32,0.058,4.979c-0.068,6.867,3.355,10.146,10.178,10.088c4.429-0.038,8.856,0.072,13.283,0.072
		c102.953,0.007,205.907,0.007,308.861,0.004c3.321,0,6.65,0.136,9.961-0.049c11.174-0.613,11.848-1.316,12.498-12.762
		C2393.186,3743.905,2393.097,3741.131,2393.099,3738.362z M2322.582,3674.246c-0.205,12.896-1.041,13.852-14.599,13.952
		c-30.438,0.226-60.877,0.07-91.313,0.073c-30.438,0.004-60.879,0.139-91.316-0.055c-15.367-0.096-15.72-0.594-15.922-15.985
		c-0.174-13.279-0.219-26.565,0.023-39.846c0.257-14.048,0.907-14.765,15.428-14.812c43.167-0.141,86.334-0.062,129.503-0.062
		c18.262,0,36.528-0.188,54.789,0.089c12.265,0.188,13.103,1.071,13.36,13.479
		C2322.834,3645.468,2322.808,3659.86,2322.582,3674.246z"/>
	<path fill="#212121" d="M3246.773,4096.178c0-82.418,0-164.838-0.014-247.254c0-3.875-0.063-7.746-0.24-11.611
		c-0.211-4.59-2.75-7.041-7.305-7.256c-3.316-0.153-6.636-0.142-9.951-0.142c-106.205-0.041-212.412-0.098-318.615-0.092
		c-19.879,0-20.004,0.106-20.021,20.071c-0.055,76.332-0.021,152.668-0.027,229c-0.004,74.123-0.006,148.244,0,222.365
		c0,4.979,0.244,9.963,0.088,14.937c-0.223,7.353,2.541,11.498,10.516,11.431c17.146-0.152,34.295-0.086,51.443-0.066
		c6.963,0.009,9.947-3.744,10.017-10.352c0.043-4.429,0.09-8.851,0.09-13.277c0.008-55.314,0.004-110.631,0.012-165.943
		c0-4.426,0.156-8.852,0.099-13.272c-0.095-7.002,3.399-9.996,10.248-9.75c4.42,0.162,8.846-0.026,13.272-0.026
		c79.104-0.006,158.201-0.002,237.303-0.008c4.425,0,8.849-0.076,13.275-0.104c6.871-0.04,10.047-3.513,9.764-10.353
		C3246.609,4101.715,3246.773,4098.945,3246.773,4096.178z M3174.452,4027.093c-0.065,15.104-0.424,15.372-16.207,15.392
		c-59.68,0.086-119.366,0.086-179.047,0.003c-15.824-0.019-16.254-0.333-16.328-15.313c-0.176-36.477-0.18-72.948,0.017-109.422
		c0.082-15.078,0.428-15.254,16.281-15.312c29.842-0.112,59.686-0.03,89.524-0.03c29.844,0,59.687-0.078,89.527,0.03
		c15.922,0.058,16.17,0.2,16.231,15.242C3174.605,3954.147,3174.616,3990.625,3174.452,4027.093z"/>
	<path fill="#212121" d="M1541.409,3427.763c0-3.871-0.21-7.753-0.026-11.616c0.406-8.481-3.502-11.843-11.946-11.658
		c-15.483,0.35-30.984-0.105-46.469,0.161c-11.343,0.201-11.711,0.748-12.243,12.612c-0.274,6.075-0.078,12.167-0.096,18.256
		c-0.105,32.085-0.03,64.175-0.402,96.257c-0.152,13.178-1.196,13.827-14.379,14.354c-4.418,0.176-8.852,0.054-13.276,0.054
		c-77.453,0-154.907-0.002-232.359,0.007c-4.979,0-9.957,0.115-14.935,0.165c-6.193,0.062-8.94,3.34-8.863,9.366
		c0.041,3.319-0.093,6.638-0.093,9.956c-0.006,58.089-0.032,116.181,0.011,174.271c0.013,19.405,0.092,19.493,18.944,19.511
		c53.112,0.048,106.224,0.018,159.332,0.018c7.195,0.002,14.385,0,21.579,0c45.364,0,90.73,0.04,136.097-0.02
		c19.007-0.025,19.007-0.12,19.128-19.668c0.005-1.105,0.002-2.209,0.002-3.317
		C1541.412,3633.568,1541.412,3530.666,1541.409,3427.763z M1470.23,3674.959c-0.208,12.185-0.959,13.112-13.479,13.215
		c-30.981,0.254-61.964,0.085-92.946,0.099c-29.877,0.011-59.754,0.11-89.628-0.03c-16.602-0.077-17.058-0.668-17.129-16.609
		c-0.061-12.727-0.086-25.448,0.017-38.176c0.115-14.582,1.226-15.854,16.313-15.887c50.348-0.125,100.692-0.056,151.039-0.052
		c11.618,0,23.239,0.173,34.854,0.002c7.64-0.106,11.183,3.363,11.129,10.967C1470.287,3643.977,1470.496,3659.472,1470.23,3674.959
		z"/>
</g>
</svg>
